# xmcd
#
# Track frame offsets:
#  150
#  15597
#  33832
#  49350
#  60082
#  77792
#  93125
#  111925
#  132977
#  150507
#  164712
#
# Disc length: 2404 seconds
#
# Revision: 0
# Processed by: cddbd v1.5.1PL0 Copyright (c) Steve Scherf et al.
# Submitted via: Collectorz.com_Music_Collector 6.9
#
DISCID=8009620b
DTITLE=Rich, Sherry - Trying To Write A Love Song
DYEAR=1996
DGENRE=
TTITLE0=Get Your Kicks
TTITLE1=Trying To Write A Love Song
TTITLE2=Sitting Here Alone (Country Star's Lament)
TTITLE3=That's What I Like
TTITLE4=Dark End Of The Street
TTITLE5=Wild Dogs
TTITLE6=When Love Calls
TTITLE7=Beautiful, Talented and Dead
TTITLE8=You Can Have That Man
TTITLE9=My Mother's Guitar
TTITLE10=Why Should I Trust You
EXTD=
EXTT0=
EXTT1=
EXTT2=
EXTT3=
EXTT4=
EXTT5=
EXTT6=
EXTT7=
EXTT8=
EXTT9=
EXTT10=
PLAYORDER=
